<mxfile host="app.diagrams.net" modified="2022-05-16T11:00:22.739Z" agent="5.0 (Windows NT 10.0; Win64; x64) AppleWebKit/537.36 (KHTML, like Gecko) Chrome/101.0.4951.67 Safari/537.36" etag="dutketr98Kt04I_XQb_h" version="18.0.5" type="github">
  <diagram id="gEIil4NgjdD_1FlAC_lc" name="Page-1">
    <mxGraphModel dx="1498" dy="1918" grid="1" gridSize="10" guides="1" tooltips="1" connect="1" arrows="1" fold="1" page="1" pageScale="1" pageWidth="850" pageHeight="1100" math="0" shadow="0">
      <root>
        <mxCell id="0" />
        <mxCell id="1" parent="0" />
        <mxCell id="TKKB0YQZXz23wYlMiN0A-1" style="edgeStyle=orthogonalEdgeStyle;rounded=0;orthogonalLoop=1;jettySize=auto;html=1;fontColor=#FFFFFF;exitX=1;exitY=0.5;exitDx=0;exitDy=0;fontSize=19;fontStyle=1" edge="1" parent="1" source="TKKB0YQZXz23wYlMiN0A-3" target="TKKB0YQZXz23wYlMiN0A-15">
          <mxGeometry relative="1" as="geometry">
            <mxPoint x="957" y="105.5" as="sourcePoint" />
          </mxGeometry>
        </mxCell>
        <mxCell id="TKKB0YQZXz23wYlMiN0A-2" style="edgeStyle=orthogonalEdgeStyle;rounded=0;orthogonalLoop=1;jettySize=auto;html=1;fontColor=#FFFFFF;fontSize=19;fontStyle=1" edge="1" parent="1" source="TKKB0YQZXz23wYlMiN0A-3" target="TKKB0YQZXz23wYlMiN0A-18">
          <mxGeometry relative="1" as="geometry" />
        </mxCell>
        <mxCell id="TKKB0YQZXz23wYlMiN0A-21" style="edgeStyle=orthogonalEdgeStyle;rounded=0;orthogonalLoop=1;jettySize=auto;html=1;fontSize=19;fontStyle=1" edge="1" parent="1" source="TKKB0YQZXz23wYlMiN0A-3" target="TKKB0YQZXz23wYlMiN0A-9">
          <mxGeometry relative="1" as="geometry" />
        </mxCell>
        <mxCell id="TKKB0YQZXz23wYlMiN0A-22" style="edgeStyle=orthogonalEdgeStyle;rounded=0;orthogonalLoop=1;jettySize=auto;html=1;fontSize=19;fontStyle=1" edge="1" parent="1" source="TKKB0YQZXz23wYlMiN0A-3" target="TKKB0YQZXz23wYlMiN0A-7">
          <mxGeometry relative="1" as="geometry" />
        </mxCell>
        <mxCell id="TKKB0YQZXz23wYlMiN0A-24" style="edgeStyle=orthogonalEdgeStyle;rounded=0;orthogonalLoop=1;jettySize=auto;html=1;entryX=0.5;entryY=1;entryDx=0;entryDy=0;fontSize=19;fontStyle=1" edge="1" parent="1" source="TKKB0YQZXz23wYlMiN0A-3" target="TKKB0YQZXz23wYlMiN0A-4">
          <mxGeometry relative="1" as="geometry" />
        </mxCell>
        <mxCell id="TKKB0YQZXz23wYlMiN0A-30" style="edgeStyle=orthogonalEdgeStyle;rounded=0;orthogonalLoop=1;jettySize=auto;html=1;fontSize=19;fontStyle=1" edge="1" parent="1" source="TKKB0YQZXz23wYlMiN0A-3" target="TKKB0YQZXz23wYlMiN0A-6">
          <mxGeometry relative="1" as="geometry" />
        </mxCell>
        <mxCell id="TKKB0YQZXz23wYlMiN0A-31" style="edgeStyle=orthogonalEdgeStyle;rounded=0;orthogonalLoop=1;jettySize=auto;html=1;entryX=0.5;entryY=1;entryDx=0;entryDy=0;fontSize=19;fontStyle=1" edge="1" parent="1" source="TKKB0YQZXz23wYlMiN0A-3" target="TKKB0YQZXz23wYlMiN0A-27">
          <mxGeometry relative="1" as="geometry" />
        </mxCell>
        <mxCell id="TKKB0YQZXz23wYlMiN0A-42" style="edgeStyle=orthogonalEdgeStyle;rounded=0;orthogonalLoop=1;jettySize=auto;html=1;entryX=0.421;entryY=1;entryDx=0;entryDy=0;entryPerimeter=0;fontSize=19;fontStyle=1" edge="1" parent="1" source="TKKB0YQZXz23wYlMiN0A-3" target="TKKB0YQZXz23wYlMiN0A-40">
          <mxGeometry relative="1" as="geometry" />
        </mxCell>
        <mxCell id="TKKB0YQZXz23wYlMiN0A-43" style="edgeStyle=orthogonalEdgeStyle;rounded=0;orthogonalLoop=1;jettySize=auto;html=1;entryX=0.5;entryY=0;entryDx=0;entryDy=0;fontSize=19;fontStyle=1" edge="1" parent="1" source="TKKB0YQZXz23wYlMiN0A-3" target="TKKB0YQZXz23wYlMiN0A-39">
          <mxGeometry relative="1" as="geometry">
            <Array as="points">
              <mxPoint x="1685" y="510" />
            </Array>
          </mxGeometry>
        </mxCell>
        <mxCell id="TKKB0YQZXz23wYlMiN0A-44" style="edgeStyle=orthogonalEdgeStyle;rounded=0;orthogonalLoop=1;jettySize=auto;html=1;fontSize=19;fontStyle=1" edge="1" parent="1" source="TKKB0YQZXz23wYlMiN0A-3" target="TKKB0YQZXz23wYlMiN0A-38">
          <mxGeometry relative="1" as="geometry">
            <Array as="points">
              <mxPoint x="1455" y="510" />
            </Array>
          </mxGeometry>
        </mxCell>
        <mxCell id="TKKB0YQZXz23wYlMiN0A-46" style="edgeStyle=orthogonalEdgeStyle;rounded=0;orthogonalLoop=1;jettySize=auto;html=1;fontSize=19;fontStyle=1" edge="1" parent="1" source="TKKB0YQZXz23wYlMiN0A-3" target="TKKB0YQZXz23wYlMiN0A-36">
          <mxGeometry relative="1" as="geometry">
            <Array as="points">
              <mxPoint x="1205" y="510" />
            </Array>
          </mxGeometry>
        </mxCell>
        <mxCell id="TKKB0YQZXz23wYlMiN0A-47" style="edgeStyle=orthogonalEdgeStyle;rounded=0;orthogonalLoop=1;jettySize=auto;html=1;entryX=0.5;entryY=0;entryDx=0;entryDy=0;fontSize=19;fontStyle=1" edge="1" parent="1" source="TKKB0YQZXz23wYlMiN0A-3" target="TKKB0YQZXz23wYlMiN0A-32">
          <mxGeometry relative="1" as="geometry" />
        </mxCell>
        <mxCell id="TKKB0YQZXz23wYlMiN0A-49" style="edgeStyle=orthogonalEdgeStyle;rounded=0;orthogonalLoop=1;jettySize=auto;html=1;fontSize=19;fontStyle=1" edge="1" parent="1" source="TKKB0YQZXz23wYlMiN0A-3" target="TKKB0YQZXz23wYlMiN0A-34">
          <mxGeometry relative="1" as="geometry">
            <Array as="points">
              <mxPoint x="645" y="510" />
            </Array>
          </mxGeometry>
        </mxCell>
        <mxCell id="TKKB0YQZXz23wYlMiN0A-51" style="edgeStyle=orthogonalEdgeStyle;rounded=0;orthogonalLoop=1;jettySize=auto;html=1;entryX=0.5;entryY=0;entryDx=0;entryDy=0;fontSize=19;fontStyle=1" edge="1" parent="1" source="TKKB0YQZXz23wYlMiN0A-3" target="TKKB0YQZXz23wYlMiN0A-35">
          <mxGeometry relative="1" as="geometry">
            <Array as="points">
              <mxPoint x="415" y="510" />
            </Array>
          </mxGeometry>
        </mxCell>
        <mxCell id="TKKB0YQZXz23wYlMiN0A-52" style="edgeStyle=orthogonalEdgeStyle;rounded=0;orthogonalLoop=1;jettySize=auto;html=1;fontSize=19;fontStyle=1" edge="1" parent="1" source="TKKB0YQZXz23wYlMiN0A-3" target="TKKB0YQZXz23wYlMiN0A-37">
          <mxGeometry relative="1" as="geometry">
            <Array as="points">
              <mxPoint x="185" y="510" />
            </Array>
          </mxGeometry>
        </mxCell>
        <mxCell id="TKKB0YQZXz23wYlMiN0A-3" value="main" style="rounded=1;fillColor=#23445D;gradientColor=none;strokeColor=none;fontColor=#FFFFFF;fontStyle=1;fontFamily=Tahoma;fontSize=19;" vertex="1" parent="1">
          <mxGeometry x="757" y="440" width="190" height="80" as="geometry" />
        </mxCell>
        <mxCell id="TKKB0YQZXz23wYlMiN0A-4" value="decryptFile()" style="rounded=1;fillColor=#23445D;gradientColor=none;strokeColor=none;fontColor=#FFFFFF;fontStyle=1;fontFamily=Tahoma;fontSize=19;" vertex="1" parent="1">
          <mxGeometry x="979.9999999999998" y="190" width="190" height="80" as="geometry" />
        </mxCell>
        <mxCell id="TKKB0YQZXz23wYlMiN0A-6" value="encryptFile()" style="rounded=1;fillColor=#23445D;gradientColor=none;strokeColor=none;fontColor=#FFFFFF;fontStyle=1;fontFamily=Tahoma;fontSize=19;" vertex="1" parent="1">
          <mxGeometry x="757" y="190" width="190" height="80" as="geometry" />
        </mxCell>
        <mxCell id="TKKB0YQZXz23wYlMiN0A-7" value="deleteFileContent()" style="rounded=1;fillColor=#23445D;gradientColor=none;strokeColor=none;fontColor=#FFFFFF;fontStyle=1;fontFamily=Tahoma;fontSize=19;" vertex="1" parent="1">
          <mxGeometry x="531.9999999999999" y="190" width="190" height="80" as="geometry" />
        </mxCell>
        <mxCell id="TKKB0YQZXz23wYlMiN0A-9" value="displayContent()" style="rounded=1;fillColor=#23445D;gradientColor=none;strokeColor=none;fontColor=#FFFFFF;fontStyle=1;fontFamily=Tahoma;fontSize=19;" vertex="1" parent="1">
          <mxGeometry x="300" y="190" width="190" height="80" as="geometry" />
        </mxCell>
        <mxCell id="TKKB0YQZXz23wYlMiN0A-15" value="mergeFile()" style="rounded=1;fillColor=#23445D;gradientColor=none;strokeColor=none;fontColor=#FFFFFF;fontStyle=1;fontFamily=Tahoma;fontSize=19;" vertex="1" parent="1">
          <mxGeometry x="1199.9999999999998" y="190" width="190" height="80" as="geometry" />
        </mxCell>
        <mxCell id="TKKB0YQZXz23wYlMiN0A-18" value="addToFile()" style="rounded=1;fillColor=#23445D;gradientColor=none;strokeColor=none;fontColor=#FFFFFF;fontStyle=1;fontFamily=Tahoma;fontSize=19;" vertex="1" parent="1">
          <mxGeometry x="60" y="190" width="190" height="80" as="geometry" />
        </mxCell>
        <mxCell id="TKKB0YQZXz23wYlMiN0A-27" value="NumberOfWords()" style="rounded=1;fillColor=#23445D;gradientColor=none;strokeColor=none;fontColor=#FFFFFF;fontStyle=1;fontFamily=Tahoma;fontSize=19;" vertex="1" parent="1">
          <mxGeometry x="1410" y="190" width="190" height="80" as="geometry" />
        </mxCell>
        <mxCell id="TKKB0YQZXz23wYlMiN0A-32" value="num_of_word_existence()" style="rounded=1;fillColor=#23445D;gradientColor=none;strokeColor=none;fontColor=#FFFFFF;fontStyle=1;fontFamily=Tahoma;fontSize=19;" vertex="1" parent="1">
          <mxGeometry x="780" y="700" width="290" height="80" as="geometry" />
        </mxCell>
        <mxCell id="TKKB0YQZXz23wYlMiN0A-34" value="deleteFileContent()" style="rounded=1;fillColor=#23445D;gradientColor=none;strokeColor=none;fontColor=#FFFFFF;fontStyle=1;fontFamily=Tahoma;fontSize=19;" vertex="1" parent="1">
          <mxGeometry x="549.9999999999999" y="700" width="190" height="80" as="geometry" />
        </mxCell>
        <mxCell id="TKKB0YQZXz23wYlMiN0A-35" value="SearchForAWord()" style="rounded=1;fillColor=#23445D;gradientColor=none;strokeColor=none;fontColor=#FFFFFF;fontStyle=1;fontFamily=Tahoma;fontSize=19;" vertex="1" parent="1">
          <mxGeometry x="320" y="700" width="190" height="80" as="geometry" />
        </mxCell>
        <mxCell id="TKKB0YQZXz23wYlMiN0A-36" value="uppercasefile()" style="rounded=1;fillColor=#23445D;gradientColor=none;strokeColor=none;fontColor=#FFFFFF;fontStyle=1;fontFamily=Tahoma;fontSize=19;" vertex="1" parent="1">
          <mxGeometry x="1109.9999999999998" y="700" width="190" height="80" as="geometry" />
        </mxCell>
        <mxCell id="TKKB0YQZXz23wYlMiN0A-37" value="NumberOfLines()" style="rounded=1;fillColor=#23445D;gradientColor=none;strokeColor=none;fontColor=#FFFFFF;fontStyle=1;fontFamily=Tahoma;fontSize=19;" vertex="1" parent="1">
          <mxGeometry x="90" y="700" width="190" height="80" as="geometry" />
        </mxCell>
        <mxCell id="TKKB0YQZXz23wYlMiN0A-38" value="lowercasefile()" style="rounded=1;fillColor=#23445D;gradientColor=none;strokeColor=none;fontColor=#FFFFFF;fontStyle=1;fontFamily=Tahoma;fontSize=19;" vertex="1" parent="1">
          <mxGeometry x="1360" y="700" width="190" height="80" as="geometry" />
        </mxCell>
        <mxCell id="TKKB0YQZXz23wYlMiN0A-39" value="First_Caps_File()" style="rounded=1;fillColor=#23445D;gradientColor=none;strokeColor=none;fontColor=#FFFFFF;fontStyle=1;fontFamily=Tahoma;fontSize=19;" vertex="1" parent="1">
          <mxGeometry x="1590" y="700" width="190" height="80" as="geometry" />
        </mxCell>
        <mxCell id="TKKB0YQZXz23wYlMiN0A-40" value="copyFile()" style="rounded=1;fillColor=#23445D;gradientColor=none;strokeColor=none;fontColor=#FFFFFF;fontStyle=1;fontFamily=Tahoma;fontSize=19;" vertex="1" parent="1">
          <mxGeometry x="1620" y="190" width="190" height="80" as="geometry" />
        </mxCell>
      </root>
    </mxGraphModel>
  </diagram>
</mxfile>
